<svg width="33" height="33" viewBox="0 0 33 33" fill="none" xmlns="http://www.w3.org/2000/svg">
<circle cx="16.5" cy="16.5" r="16.5" fill="#D9D9D9"/>
<path d="M11.0674 11.8304L12.8047 10.0932C13.5967 9.30115 13.9927 8.90514 14.4494 8.75676C14.8511 8.62624 15.2838 8.62624 15.6854 8.75676C16.1421 8.90514 16.5381 9.30115 17.3301 10.0932L18.0674 10.8306M14.0674 14.8304L18.0674 18.8304M13.5674 23.3307C14.2254 22.6726 20.7114 16.1867 24.0714 12.8267C25.176 11.7221 25.172 9.93519 24.0674 8.83055C22.9628 7.72585 21.1758 7.72182 20.0711 8.82648C16.7111 12.1866 10.2253 18.6723 9.56731 19.3303C7.78272 21.1147 6.71382 25.4768 7.06731 25.8303C7.42079 26.1838 11.7281 25.17 13.5674 23.3307Z" stroke="#131A29" stroke-width="2" stroke-linecap="round" stroke-linejoin="round"/>
</svg>
